<?xml version="1.0" encoding="UTF-8"?><svg id="Layer_2" xmlns="http://www.w3.org/2000/svg" viewBox="0 0 256 256"><defs><style>.cls-1{fill:#3aa99f;}.cls-2{fill:#cecdc3;}</style></defs><g id="Layer_6"><g><rect class="cls-2" width="256" height="256" rx="64" ry="64"/><g><path class="cls-1" d="M172.47,166.93c-3.45,0-6.89-.48-10.23-1.46-9.03-2.09-17.31-6.84-24.61-14.12-3.73-3.72-7.17-8.1-10.19-12.94-3.5,5.3-7.34,10.46-12.01,15.07-4.78,5.25-11.08,9.11-18.23,11.17-6.63,1.91-13.89,2.25-20.99,1-7.13-1.26-13.86-4.09-19.46-8.18-6.06-4.42-10.69-10.27-13.39-16.9-2.76-6.22-3.65-13.22-2.57-20.25,.99-6.46,3.6-12.84,7.55-18.45,3.97-5.63,9.13-10.25,14.93-13.36,6.09-3.27,12.77-4.8,19.36-4.44h.44c3.86,0,7.52,.37,10.85,1.13,9.03,2.05,17.44,7.03,24.98,14.8,3.38,3.49,6.37,7.28,8.99,11.02,5.32-7.77,11.49-15.08,20.12-20.56,5.89-3.99,12.95-6.29,20.43-6.65,6.95-.33,14.13,.99,20.75,3.84,13.82,5.94,23.37,17.53,25.53,31,1.12,6.85,.23,14.05-2.58,20.8-2.58,6.21-6.73,11.92-11.98,16.53-8.14,7.14-17.98,10.94-27.69,10.94Zm-36.36-42.35c4.01,8.15,13.48,23.38,29.52,27l.25,.06,.24,.07c8.04,2.42,17.24,0,24.61-6.47,7.48-6.56,11.26-15.87,9.88-24.3-1.39-8.63-7.77-16.16-17.07-20.16-9.58-4.12-20.14-3.53-27.57,1.55l-.21,.14c-8.37,5.29-14.11,13.31-19.66,22.11Zm-55.36-26.27c-7.7,0-15.52,4.41-20.72,11.8-5.52,7.83-6.89,17.31-3.56,24.74l.11,.25c3.41,8.47,11.68,14.62,22.13,16.47,10.39,1.84,20.2-1.09,26.26-7.82l.15-.17,.16-.16c5.53-5.42,9.84-12.08,14.24-19.19-7.16-11.38-16.17-22.24-28.75-25.1-2.13-.48-4.5-.74-7.07-.77l-.46,.08-.91-.07c-.52-.04-1.05-.06-1.58-.06Z"/><rect class="cls-1" x="69.33" y="120.93" width="29.07" height="6.06"/><polygon class="cls-1" points="174.24 136.07 166.49 136.07 166.49 127.83 158.49 127.83 158.49 120.08 166.49 120.08 166.49 111.84 174.24 111.84 174.24 120.08 182.72 120.08 182.72 127.83 174.24 127.83 174.24 136.07"/></g></g></g></svg>