<?xml version="1.0" encoding="UTF-8"?><svg id="Layer_2" xmlns="http://www.w3.org/2000/svg" viewBox="0 0 256 256"><defs><style>.cls-1{fill:#879a39;}.cls-2{fill:#cecdc3;}</style></defs><g id="Layer_5"><g><rect class="cls-2" width="256" height="256" rx="64" ry="64"/><g><path class="cls-1" d="M215.55,132.05h-8.27v8.27h-8.27v-8.27h-8.27v-8.27h8.27v-8.27h8.27v8.27h8.27v8.27m-30.17,0h-8.27v8.27h-8.27v-8.27h-8.27v-8.27h8.27v-8.27h8.27v8.27h8.27v8.27"/><path class="cls-1" d="M144.03,145.62c-6.16,10.93-17.88,18.32-31.32,18.32s-25.01-7.29-31.2-18.11c-3.11-5.43-4.75-11.57-4.74-17.83,0-19.85,16.09-35.94,35.94-35.94,13.27,0,24.86,7.2,31.08,17.91l31.41-18.09c-12.49-21.55-35.8-36.05-62.5-36.05-39.86,0-72.18,32.31-72.18,72.17,0,13.08,3.48,25.34,9.56,35.92,12.45,21.67,35.83,36.26,62.62,36.26s50.25-14.65,62.68-36.38l-31.37-18.17"/></g></g></g></svg>