<?xml version="1.0" encoding="UTF-8"?><svg id="Layer_2" xmlns="http://www.w3.org/2000/svg" viewBox="0 0 256 256"><defs><style>.cls-1{fill:#4385be;}.cls-2{fill:#cecdc3;}</style></defs><g id="Layer_6"><g><rect class="cls-2" width="256" height="256" rx="64" ry="64"/><g><path class="cls-1" d="M191.02,89.35v-12.54c0-6.93-5.67-12.54-12.65-12.54h-12.65v-12.54h-12.65v12.54h-18.97v-12.54h-12.65v12.54h-18.97v-12.54h-12.66v12.54h-12.65c-6.99,0-12.65,5.61-12.65,12.54v12.54h-12.64v12.54h12.65v18.81h-12.65v12.54h12.65v18.81h-12.65v12.54h12.65v12.54c0,6.93,5.66,12.54,12.65,12.54h12.65v12.54h12.65v-12.54h18.97v12.54h12.65v-12.54h18.97v12.54h12.65v-12.54h12.65c6.98,0,12.65-5.61,12.65-12.54v-12.54h12.65v-12.54h-12.65v-18.8h12.65v-12.54h-12.65v-18.8h12.65v-12.54h-12.64Zm-113.83-12.54h17.48v10.22h-8.42v6.41h-9.06v-16.63Zm17.47,100.3h-17.47v-16.45h9.06v7.53h8.41v8.92Zm8.01-56.22h-9.31v3.71h8.38v4.72h-8.38v8.43h-5.86v-21.57h15.17v4.72Zm18.44,6.92c-.68,1.13-1.64,2-2.88,2.61-1.23,.61-2.67,.92-4.31,.92h-3.24v6.4h-5.86v-21.57h9.31c1.6,0,3,.32,4.2,.95,1.2,.63,2.13,1.52,2.8,2.66,.67,1.14,1,2.48,1,4.01s-.34,2.88-1.03,4.01Zm23.36,.87c0,1.97-.42,3.65-1.25,5.04-.83,1.39-1.98,2.46-3.43,3.2-1.46,.74-3.13,1.11-5.01,1.11-2.1,0-3.94-.45-5.53-1.34-1.59-.89-2.82-2.16-3.71-3.81-.89-1.65-1.33-3.61-1.33-5.89,0-1.78,.27-3.36,.82-4.74,.54-1.38,1.3-2.54,2.27-3.49,.97-.95,2.09-1.67,3.36-2.16,1.27-.49,2.63-.73,4.09-.73,1.28,0,2.47,.18,3.57,.54,1.1,.36,2.07,.87,2.92,1.54,.85,.66,1.53,1.45,2.05,2.35,.52,.91,.84,1.9,.95,2.98h-5.92c-.09-.37-.24-.7-.43-.98-.2-.28-.44-.53-.73-.73-.29-.2-.63-.35-1.01-.45-.38-.1-.8-.15-1.26-.15-.98,0-1.82,.24-2.51,.71-.69,.47-1.22,1.15-1.58,2.03-.36,.88-.54,1.95-.54,3.2s.17,2.35,.52,3.24c.34,.9,.86,1.59,1.54,2.06,.68,.48,1.53,.72,2.54,.72,.89,0,1.63-.13,2.23-.39,.59-.26,1.04-.63,1.33-1.11,.28-.45,.42-.98,.44-1.58h-3.92v-4.17h9.56v2.99Zm7.67,9.06h-6.32l7.12-21.57h8l7.12,21.57h-6.32l-1.25-4.13h-7.11l-1.25,4.13Zm26.25,39.37h-17.14v-8.92h6.88v-7.53h10.26v16.45Zm0-83.67h-10.26v-6.41h-6.88v-10.22h17.14v16.63Z"/><polygon class="cls-1" points="159.17 129.23 157.02 122.11 156.85 122.11 154.7 129.23 159.17 129.23"/><path class="cls-1" d="M114.5,121.2c-.49-.24-1.08-.35-1.76-.35h-2.06v5.94h2.06c.69,0,1.28-.12,1.76-.36,.49-.24,.86-.59,1.13-1.04,.26-.45,.4-.98,.4-1.59s-.13-1.15-.4-1.59c-.26-.44-.64-.78-1.13-1.01Z"/></g></g></g></svg>