<?xml version="1.0" encoding="UTF-8"?><svg id="Layer_2" xmlns="http://www.w3.org/2000/svg" viewBox="0 0 256 256"><defs><style>.cls-1{fill:#d14d41;}.cls-2{fill:#cecdc3;}</style></defs><g id="Layer_6"><g><rect class="cls-2" width="256" height="256" rx="64" ry="64"/><path class="cls-1" d="M206.97,123.89L138.68,55.59c-3.94-3.93-10.31-3.93-14.25,0l-14.2,14.19,17.99,17.99c9.45-3.19,18.4,5.86,15.15,15.25l17.34,17.34c11.95-4.12,21.36,10.83,12.39,19.8-9.25,9.25-24.52-1-19.56-13.04l-16.19-16.17v42.55c8.84,4.38,7.77,14.61,3.17,19.21-4.68,4.68-12.27,4.68-16.95,0-6.14-6.15-3.87-16.38,3.93-19.56v-42.95c-7.26-2.97-8.59-10.73-6.51-15.71l-17.74-17.76-46.84,46.84c-3.93,3.94-3.93,10.32,0,14.25l68.31,68.31c3.94,3.93,10.31,3.93,14.25,0l67.99-67.99c3.93-3.94,3.93-10.32,0-14.25h0Z"/></g></g></svg>