<?xml version="1.0" encoding="UTF-8"?><svg id="Layer_2" xmlns="http://www.w3.org/2000/svg" viewBox="0 0 256 256"><defs><style>.cls-1{fill:#1c1b1a;}.cls-2{fill:#cecdc3;}</style></defs><g id="Layer_6"><g><rect class="cls-2" width="256" height="256" rx="64" ry="64"/><path class="cls-1" d="M105.8,173.51c0,.63-.73,1.14-1.64,1.14-1.04,.09-1.77-.41-1.77-1.14,0-.63,.73-1.14,1.64-1.14,.95-.09,1.77,.41,1.77,1.14Zm-9.81-1.42c-.22,.63,.41,1.36,1.36,1.55,.82,.32,1.77,0,1.96-.63s-.41-1.36-1.36-1.64c-.82-.22-1.73,.09-1.96,.73h0Zm13.94-.54c-.91,.22-1.55,.82-1.45,1.55,.09,.63,.91,1.04,1.86,.82,.91-.22,1.55-.82,1.45-1.45-.09-.6-.95-1.01-1.86-.91Zm20.75-120.87c-43.75,0-77.21,33.21-77.21,76.96,0,34.98,22.02,64.91,53.46,75.45,4.04,.73,5.46-1.77,5.46-3.82s-.09-12.74-.09-19.37c0,0-22.08,4.73-26.72-9.4,0,0-3.6-9.18-8.77-11.54,0,0-7.22-4.95,.5-4.86,0,0,7.85,.63,12.18,8.14,6.91,12.18,18.48,8.67,22.99,6.59,.73-5.05,2.78-8.55,5.05-10.63-17.63-1.96-35.42-4.51-35.42-34.85,0-8.67,2.4-13.03,7.44-18.58-.82-2.05-3.5-10.5,.82-21.42,6.59-2.05,21.76,8.52,21.76,8.52,6.31-1.77,13.09-2.68,19.81-2.68s13.5,.91,19.81,2.68c0,0,15.17-10.6,21.76-8.52,4.32,10.95,1.64,19.37,.82,21.42,5.05,5.58,8.14,9.94,8.14,18.58,0,30.44-18.58,32.87-36.21,34.85,2.9,2.49,5.36,7.22,5.36,14.64,0,10.63-.09,23.78-.09,26.37,0,2.05,1.45,4.54,5.46,3.82,31.54-10.47,52.93-40.41,52.93-75.39,0-43.75-35.48-76.96-79.23-76.96Zm-46.56,108.79c-.41,.32-.32,1.04,.22,1.64,.5,.5,1.23,.73,1.64,.32,.41-.32,.32-1.04-.22-1.64-.5-.5-1.23-.73-1.64-.32Zm-3.41-2.55c-.22,.41,.09,.91,.73,1.23,.5,.32,1.14,.22,1.36-.22,.22-.41-.09-.91-.73-1.23-.63-.19-1.14-.09-1.36,.22Zm10.22,11.23c-.5,.41-.32,1.36,.41,1.96,.73,.73,1.64,.82,2.05,.32,.41-.41,.22-1.36-.41-1.96-.69-.73-1.64-.82-2.05-.32Zm-3.6-4.64c-.5,.32-.5,1.14,0,1.86s1.36,1.04,1.77,.73c.5-.41,.5-1.23,0-1.96-.44-.73-1.26-1.04-1.77-.63h0Z"/></g></g></svg>