<?xml version="1.0" encoding="UTF-8"?><svg id="Layer_2" xmlns="http://www.w3.org/2000/svg" viewBox="0 0 256 256"><defs><style>.cls-1{fill:#4385be;}.cls-2{fill:#cecdc3;}.cls-3{fill:#da702c;}</style></defs><g id="Layer_5"><g><rect class="cls-2" width="256" height="256" rx="64" ry="64"/><g><path class="cls-3" d="M126.71,131.29c-6-13.49-26.25-25.34,0-46.06,32.75-25.84,15.95-42.65,15.95-42.65,6.79,26.7-23.88,34.78-34.97,51.37-7.55,11.34,3.7,23.5,19.02,37.34Z"/><path class="cls-1" d="M153.69,141.44c3.1-2.12,7.39-3.95,7.39-3.95,0,0-12.23,2.21-24.39,3.22-14.88,1.23-30.87,1.48-38.89,.41-18.99-2.53,10.43-9.51,10.43-9.51,0,0-11.4-.76-25.46,6-16.59,8.02,41.07,11.69,70.92,3.82Z"/><path class="cls-3" d="M162.91,75.63s-55.35,13.84-28.91,44.29c7.8,8.97-2.05,17.06-2.05,17.06,0,0,19.81-10.24,10.71-23.03-8.5-11.94-15.01-17.88,20.25-38.32Z"/><path class="cls-1" d="M160.99,161.09c-.17,.3-.39,.58-.63,.82,40.53-10.65,25.62-37.56,6.26-30.74-1.05,.38-1.95,1.08-2.59,1.99,1.13-.41,2.29-.73,3.48-.95,9.79-2.05,23.85,13.11-6.51,28.88Z"/><path class="cls-1" d="M162.06,198.4c-24.86,4.68-55.54,4.14-73.7,1.14,0-.03,3.73,3.06,22.87,4.3,29.13,1.86,73.86-1.04,74.9-14.82,0,0-2.02,5.21-24.07,9.38Z"/><path class="cls-1" d="M175.89,180.77s4.58,3.76-5.02,6.7c-18.29,5.53-76.07,7.2-92.12,.22-5.78-2.5,5.05-6,8.47-6.73,3.54-.76,5.59-.63,5.59-.63-6.41-4.52-41.48,8.88-17.82,12.7,64.52,10.49,117.65-4.71,100.91-12.26Z"/><path class="cls-1" d="M148.29,154.1c-18.7,3.6-29.54,3.51-43.22,2.09-10.58-1.11-3.66-6.22-3.66-6.22-27.42,9.1,15.23,19.4,53.55,8.18-2.48-.87-4.75-2.25-6.67-4.04Z"/><path class="cls-1" d="M105.26,167.69c-24.86,6.95,15.13,21.29,46.79,7.74-3.09-1.2-6.07-2.66-8.91-4.36-14.12,2.69-20.66,2.87-33.49,1.42-10.58-1.2-4.39-4.8-4.39-4.8Z"/></g></g></g></svg>