<?xml version="1.0" encoding="UTF-8"?>
<svg id="Layer_1" data-name="Layer 1" xmlns="http://www.w3.org/2000/svg" viewBox="0 0 432 432">
  <defs>
    <style>
      .cls-1 {
        fill: #0c2c42;
      }

      .cls-1, .cls-2 {
        stroke-width: 0px;
      }

      .cls-2 {
        fill: #fff;
      }
    </style>
  </defs>
  <g id="avofYA.tif">
    <g>
      <path class="cls-1" d="m196.34,144.24v139.63c-6.91.39-13.65.78-20.58,1.17V126.03c.82-.06,1.54-.17,2.27-.17,23.41.03,46.83-.09,70.24.19,11.26.13,22.43,1.49,32.92,6.05,14,6.09,24.14,16.33,31.37,29.54,7.36,13.44,10.46,28.04,11.51,43.2.74,10.58.48,21.13-1.1,31.59-2.38,15.79-7.38,30.61-17.04,43.62-9.93,13.37-23.28,21.22-39.5,23.96-8.58,1.45-17.34,2.1-26.04,2.51-8.89.42-17.81.09-26.8-.26,2.06-.73,4.13-1.44,6.19-2.19,8.26-3,15.58-7.5,21.74-13.77,1.48-1.5,3-2.03,5.03-2.13,9.36-.43,18.51-1.82,27.09-5.95,9.64-4.63,15.85-12.39,20.48-21.69,6.2-12.47,8.2-25.9,8.79-39.58.53-12.24-.11-24.46-3.41-36.34-4.37-15.73-13.03-28.28-27.99-35.79-5.83-2.93-12.25-4.08-18.61-4.24-18.48-.48-36.98-.47-55.47-.64-.23,0-.46.12-1.08.28Z"/>
      <path class="cls-1" d="m210.1,147.59c3.72,0,7.43,0,11.15,0,6.25,0,12.5.05,18.75-.02,1.73-.02,2.91.55,4.04,1.9,9.12,10.92,14.56,23.57,17.3,37.37,4.4,22.18,4.12,44.27-2.33,66.07-4.33,14.61-11.47,27.58-23.2,37.69-8.49,7.31-18.49,11.57-29.38,13.39-8.42,1.41-17.01,2.38-25.54,2.53-20.99.35-41.99.12-62.99.12h-2.36V126.02h56.31v17.78h-35.63v144.66c.62.04,1.19.12,1.75.12,16.74-.13,33.5,0,50.23-.5,10.91-.33,21.48-2.68,30.7-9.07,7.64-5.3,12.5-12.78,16.16-21.12,6.18-14.06,7.64-28.94,7.56-44.1-.06-11.95-1-23.78-5.29-35.03-5.06-13.27-13.44-23.79-26.47-30.17-.28-.14-.57-.27-.85-.4.03-.2.06-.4.09-.6Z"/>
      <path class="cls-2" d="m200.16,149.38c7.25.99,13.33,4.06,18.61,8.69,10.43,9.16,16.2,20.83,18.41,34.42,2.8,17.16,2.63,34.26-1.25,51.22-2.36,10.32-6.54,19.86-13.89,27.74-5.89,6.32-13.43,9.48-21.89,11.4v-133.48Z"/>
      <path class="cls-2" d="m246.9,284.67c15.66-20.4,20.86-43.69,20.97-68.35.11-24.53-4.33-47.91-20.26-68.42,11.04.57,21.21,1.9,29.76,8.78,10.7,8.61,16.96,19.87,19.62,33.2,2.78,13.98,2.95,28.05,1.3,42.18-1.22,10.4-3.93,20.32-8.89,29.63-7.21,13.51-18.88,20.06-33.63,21.97-2.79.36-5.6.64-8.86,1Z"/>
    </g>
  </g>
</svg>