<?xml version="1.0" encoding="UTF-8"?><svg id="Layer_2" xmlns="http://www.w3.org/2000/svg" viewBox="0 0 256 256"><defs><style>.cls-1{fill:#4385be;}.cls-2{fill:#cecdc3;}.cls-3{fill:#d0a215;}</style></defs><g id="Layer_5"><g><rect class="cls-2" width="256" height="256" rx="64" ry="64"/><g><path class="cls-3" d="M106.17,124.93h41.48c11.53,0,20.74-9.52,20.74-21.09v-39.58c0-11.26-9.48-19.69-20.74-21.59-13.9-2.29-29.01-2.17-41.48,.04-17.55,3.11-20.74,9.59-20.74,21.59v15.81h41.52v5.28h-57.09c-12.08,0-22.64,7.26-25.94,21.05-3.81,15.81-3.96,25.67,0,42.18,2.95,12.27,9.98,21.05,22.06,21.05h14.25v-18.95c0-13.71,11.85-25.79,25.94-25.79Zm-2.6-55.38c-4.31,0-7.81-3.53-7.81-7.88,.04-4.39,3.5-7.92,7.81-7.92s7.81,3.57,7.81,7.92-3.5,7.88-7.81,7.88Z"/><path class="cls-1" d="M211.81,106.44c-2.99-12-8.66-21.05-20.74-21.05h-15.57v18.41c0,14.29-12.12,26.33-25.94,26.33h-41.48c-11.34,0-20.74,9.71-20.74,21.09v39.54c0,11.26,9.79,17.87,20.74,21.09,13.13,3.84,25.75,4.54,41.48,0,10.45-3.03,20.74-9.13,20.74-21.09v-15.81h-41.44v-5.28h62.22c12.08,0,16.55-8.43,20.74-21.05,4.35-13.01,4.16-25.52,0-42.18Zm-59.66,79.04c4.31,0,7.81,3.53,7.81,7.88s-3.5,7.92-7.81,7.92-7.81-3.57-7.81-7.92c.04-4.39,3.53-7.88,7.81-7.88Z"/></g></g></g></svg>