<?xml version="1.0" encoding="UTF-8"?><svg id="Layer_2" xmlns="http://www.w3.org/2000/svg" viewBox="0 0 256 256"><defs><style>.cls-1{fill:#d14d41;}.cls-2{fill:#cecdc3;}</style></defs><g id="Layer_6"><g><rect class="cls-2" width="256" height="256" rx="64" ry="64"/><path class="cls-1" d="M181.43,127.41l-1.17-2.06c.03-14.71-6.79-20.7-14.74-25.27,2.41-.63,4.88-1.14,5.58-4.19,4.15-1.05,5.01-2.98,5.42-5.01,1.08-.73,4.69-2.76,4.31-6.25,2.03-1.4,3.17-3.2,2.57-5.74,2.19-2.38,2.76-4.34,1.84-6.15,2.63-3.27,1.46-4.95,.35-6.63,1.97-3.55,.22-7.36-5.26-6.72-2.19-3.2-6.94-2.47-7.67-2.47-.82-1.01-1.9-1.9-5.23-1.49-2.16-1.93-4.57-1.59-7.07-.67-2.95-2.31-4.91-.44-7.17,.25-3.58-1.14-4.41,.41-6.15,1.08-3.9-.82-5.1,.95-6.98,2.82l-2.19-.03c-5.9,3.42-8.81,10.4-9.86,13.98-1.05-3.58-3.96-10.56-9.86-13.98l-2.19,.03c-1.87-1.87-3.08-3.65-6.98-2.82-1.78-.63-2.57-2.22-6.15-1.08-1.46-.44-2.82-1.4-4.41-1.36-.82,.03-1.74,.32-2.76,1.11-2.5-.95-4.91-1.27-7.07,.67-3.33-.41-4.44,.44-5.23,1.49-.73,0-5.49-.73-7.67,2.47-5.49-.63-7.2,3.17-5.23,6.72-1.11,1.71-2.28,3.39,.35,6.63-.92,1.81-.35,3.77,1.84,6.15-.57,2.54,.57,4.34,2.57,5.74-.38,3.49,3.23,5.52,4.31,6.25,.41,2.03,1.27,3.93,5.42,5.01,.7,3.01,3.17,3.55,5.58,4.19-7.96,4.57-14.78,10.56-14.74,25.27l-1.17,2.06c-9.13,5.45-17.34,23.05-4.5,37.32,.82,4.47,2.25,7.67,3.49,11.22,1.87,14.33,14.11,21.02,17.31,21.81,4.72,3.55,9.77,6.91,16.55,9.26,6.44,6.53,13.41,9,20.39,9h.32c7.01,0,13.95-2.47,20.36-9,6.82-2.35,11.83-5.71,16.55-9.26,3.23-.79,15.44-7.48,17.31-21.81,1.24-3.55,2.66-6.75,3.49-11.22,12.87-14.3,4.66-31.86-4.44-37.32h0Zm-7.04-2.54c-.48,5.93-31.36-20.64-26.03-21.53,14.49-2.38,26.51,6.09,26.03,21.53Zm-13.63,29.52c-7.77,5.01-18.96,1.78-24.98-7.23-6.02-9-4.63-20.36,3.14-25.36,7.77-5.01,18.96-1.78,24.98,7.23,6.02,9,4.63,20.36-3.14,25.36h0Zm-21.53-91.41c.25,1.33,.57,2.16,.92,2.41,1.71-1.84,3.11-3.71,5.33-5.49,0,1.05-.54,2.16,.79,2.98,1.17-1.59,2.79-3.01,4.91-4.22-1.01,1.78-.19,2.31,.38,3.04,1.62-1.4,3.17-2.79,6.15-3.9-.82,.98-1.97,1.97-.76,3.11,1.68-1.05,3.36-2.09,7.32-2.82-.89,.98-2.76,2-1.62,2.98,2.09-.79,4.44-1.4,7.01-1.71-1.24,1.01-2.25,2-1.24,2.79,2.25-.7,5.36-1.62,8.37-.82l-1.9,1.93c-.22,.25,4.47,.19,7.58,.25-1.14,1.59-2.28,3.08-2.95,5.77,.32,.32,1.84,.13,3.3,0-1.49,3.14-4.06,3.9-4.66,5.26,.92,.7,2.16,.51,3.55,.03-1.08,2.19-3.3,3.71-5.07,5.49,.44,.32,1.24,.51,3.08,.29-1.65,1.74-3.61,3.33-5.96,4.76,.41,.48,1.84,.48,3.17,.51-2.12,2.06-4.85,3.14-7.42,4.5,1.27,.86,2.19,.67,3.17,.67-1.81,1.49-4.88,2.25-7.74,3.17,.54,.86,1.08,1.08,2.25,1.3-3.01,1.68-7.36,.92-8.56,1.78,.29,.86,1.14,1.4,2.12,1.84-4.88,.29-18.17-.19-20.74-10.24,4.98-5.49,14.08-11.89,29.71-19.85-12.18,4.06-23.15,9.51-32.34,16.96-10.88-5.04-3.42-17.72,1.84-22.77h0Zm-10.91,36.34c7.67-.1,17.15,5.64,17.12,11-.03,4.76-6.66,8.59-17.06,8.53-10.18-.13-17.03-4.82-16.99-9.45,0-3.77,8.31-10.3,16.93-10.08h0Zm-39-4.06c1.17-.22,1.71-.48,2.25-1.3-2.85-.89-5.93-1.68-7.74-3.17,.98,0,1.9,.22,3.17-.67-2.57-1.36-5.29-2.44-7.42-4.5,1.33-.03,2.76,0,3.17-.51-2.35-1.43-4.31-3.01-5.96-4.76,1.84,.22,2.63,.03,3.08-.29-1.78-1.78-4.03-3.3-5.07-5.49,1.36,.48,2.63,.63,3.55-.03-.6-1.33-3.17-2.12-4.66-5.26,1.46,.13,2.98,.32,3.3,0-.67-2.7-1.84-4.22-2.95-5.77,3.11-.03,7.8,0,7.58-.25l-1.9-1.93c3.01-.79,6.12,.13,8.37,.82,1.01-.79-.03-1.78-1.24-2.79,2.57,.35,4.88,.92,7.01,1.71,1.11-.98-.73-2-1.62-2.98,3.96,.73,5.64,1.78,7.32,2.82,1.2-1.14,.06-2.12-.76-3.11,2.98,1.08,4.53,2.5,6.15,3.9,.54-.73,1.4-1.27,.38-3.04,2.12,1.2,3.74,2.63,4.91,4.22,1.3-.82,.79-1.97,.79-2.98,2.22,1.78,3.61,3.65,5.33,5.49,.35-.25,.63-1.08,.92-2.41,5.26,5.04,12.71,17.72,1.9,22.77-9.19-7.45-20.17-12.9-32.34-16.96,15.63,7.93,24.73,14.36,29.71,19.85-2.54,10.08-15.85,10.53-20.74,10.24,.98-.44,1.84-1.01,2.12-1.84-1.27-.89-5.58-.13-8.62-1.78h0Zm19.06,7.64c5.33,.89-25.56,27.43-26.03,21.53-.48-15.44,11.57-23.94,26.03-21.53h0Zm-32.78,59.23c-7.51-5.96-9.92-23.37,3.99-31.17,8.4-2.22,2.85,34.18-3.99,31.17Zm28.85,31.14c-4.22,2.5-14.52,1.49-21.81-8.85-4.91-8.69-4.28-17.5-.82-20.1,5.17-3.11,13.16,1.08,19.31,8.12,5.36,6.34,7.8,17.53,3.33,20.83Zm-8.37-37.95c-7.77-5.01-9.16-16.36-3.14-25.36s17.22-12.24,24.98-7.23,9.16,16.36,3.14,25.36c-6.06,9-17.25,12.24-24.98,7.23Zm32.4,55.64c-9.32,.38-18.45-7.51-18.33-10.24-.13-4.03,11.35-7.17,18.8-6.98,7.51-.32,17.63,2.38,17.66,5.99,.16,3.49-9.13,11.38-18.14,11.22h0Zm18.67-39.6c.06,9.42-8.31,17.06-18.64,17.12-10.34,.06-18.77-7.55-18.83-16.93v-.19c-.06-9.42,8.31-17.06,18.64-17.12,10.34-.06,18.77,7.55,18.83,16.93v.19Zm26.06,13.54c-8.02,10.97-18.9,11.38-22.92,8.34-4.22-3.93-1.01-16.14,4.79-22.83,6.63-7.39,13.73-12.21,18.67-8.43,3.33,3.27,5.29,15.57-.54,22.92h0Zm7.26-23.21c-6.82,2.98-12.37-33.39-3.99-31.17,13.92,7.83,11.51,25.24,3.99,31.17Z"/></g></g></svg>